<?xml version="1.0" encoding="UTF-8" ?>
<!DOCTYPE svg PUBLIC "-//W3C//DTD SVG 1.1//EN" "http://www.w3.org/Graphics/SVG/1.1/DTD/svg11.dtd">
<svg width="97pt" height="92pt" viewBox="0 0 97 92" version="1.1" xmlns="http://www.w3.org/2000/svg">
<path fill="#ffffff" d=" M 19.02 0.00 L 36.50 0.00 C 36.03 1.81 35.64 3.64 35.24 5.46 C 31.61 5.47 27.98 5.47 24.36 5.45 C 18.68 31.95 13.17 58.49 7.49 84.99 C 11.16 85.00 14.83 85.00 18.51 85.00 C 18.08 86.82 17.65 88.64 17.23 90.46 C 11.48 90.47 5.74 90.46 0.00 90.47 L 0.00 89.65 C 6.36 59.77 12.65 29.88 19.02 0.00 Z" />
<path fill="#ba14a9" d=" M 78.49 6.00 C 78.92 4.18 79.35 2.36 79.78 0.54 C 85.52 0.52 91.26 0.54 97.00 0.53 L 97.00 1.50 C 90.60 31.31 84.33 61.16 78.01 90.99 C 72.19 91.01 66.36 91.01 60.54 90.98 C 60.95 89.17 61.36 87.35 61.76 85.54 C 65.39 85.53 69.01 85.53 72.64 85.54 C 78.32 59.04 83.83 32.51 89.50 6.01 C 85.83 6.00 82.16 6.00 78.49 6.00 Z" />
<path fill="#ba14a9" d=" M 27.52 18.54 C 33.60 12.76 42.68 9.79 50.91 12.00 C 54.65 12.98 58.17 15.68 59.32 19.48 C 61.33 25.64 58.36 32.59 53.36 36.42 C 50.03 39.17 45.70 40.13 41.49 40.40 C 40.27 46.27 38.97 52.13 37.70 57.99 C 34.68 58.01 31.67 58.01 28.65 58.00 C 31.57 44.77 34.31 31.51 37.24 18.29 C 40.35 17.82 43.47 17.44 46.58 16.98 C 44.95 24.00 43.51 31.07 42.05 38.14 C 48.86 36.80 52.66 29.55 53.02 23.12 C 53.45 19.27 51.22 14.76 47.10 14.14 C 42.20 13.53 36.86 14.77 33.16 18.17 C 29.12 22.14 28.16 28.43 29.67 33.73 C 27.58 33.38 25.15 33.06 24.01 31.01 C 21.99 26.65 24.34 21.67 27.52 18.54 Z" />
<path fill="#ffffff" d=" M 51.29 42.23 C 60.15 38.13 69.96 41.50 79.24 39.97 C 78.60 42.34 77.93 45.04 75.59 46.30 C 72.07 47.84 68.21 46.27 64.61 45.85 C 63.70 50.58 62.60 55.28 61.63 59.99 C 64.82 60.00 68.00 60.00 71.18 60.00 C 70.76 61.49 70.34 62.98 69.92 64.47 C 66.83 64.47 63.74 64.47 60.65 64.45 C 59.10 71.63 57.59 78.82 56.03 86.00 C 53.05 86.00 50.08 86.00 47.10 86.00 C 50.16 72.30 53.04 58.56 56.10 44.87 C 53.65 45.30 50.85 46.06 49.71 48.53 C 47.73 52.56 47.50 57.40 48.68 61.70 C 46.43 61.48 43.51 60.99 42.72 58.50 C 40.86 51.93 45.05 44.67 51.29 42.23 Z" />
</svg>
